HIERARCHY
ROOT Elbow
{
	OFFSET	0.00	0.00	0.00
	CHANNELS 6 Xposition Yposition Zposition Zrotation Xrotation Yrotation
	JOINT L_Wrist
	{
		OFFSET	 0.208349	 0.000000	 0.000000
		CHANNELS 3 Zrotation Xrotation Yrotation
		JOINT L_index_Proximal
		{
			OFFSET	 0.093499	 0.010637	-0.002083
			CHANNELS 3 Zrotation Xrotation Yrotation
			JOINT L_index_b
			{
				OFFSET	 0.033152	 0.000000	 0.000000
				CHANNELS 3 Zrotation Xrotation Yrotation
				JOINT L_index_c
				{
					OFFSET	 0.018651	 0.000000	 0.000000
					CHANNELS 3 Zrotation Xrotation Yrotation
					End Site
					{
						OFFSET	 0.018651	 0.000000	 0.000000
					}
				}
			}
		}
		JOINT L_middle_Proximal
		{
			OFFSET	 0.090632	-0.006115	-0.003750
			CHANNELS 3 Zrotation Xrotation Yrotation
			JOINT L_middle_b
			{
				OFFSET	 0.037194	 0.000000	 0.000000
				CHANNELS 3 Zrotation Xrotation Yrotation
				JOINT L_middle_c
				{
					OFFSET	 0.021943	 0.000000	 0.000000
					CHANNELS 3 Zrotation Xrotation Yrotation
					End Site
					{
						OFFSET	 0.021943	 0.000000	 0.000000
					}
				}
			}
		}
		JOINT L_pinky_Proximal
		{
			OFFSET	 0.074015	-0.035449	-0.000417
			CHANNELS 3 Zrotation Xrotation Yrotation
			JOINT L_pinky_b
			{
				OFFSET	 0.027285	 0.000000	 0.000000
				CHANNELS 3 Zrotation Xrotation Yrotation
				JOINT L_pinky_c
				{
					OFFSET	 0.015093	 0.000000	 0.000000
					CHANNELS 3 Zrotation Xrotation Yrotation
					End Site
					{
						OFFSET	 0.015093	 0.000000	 0.000000
					}
				}
			}
		}
		JOINT L_ring_Proximal
		{
			OFFSET	 0.082801	-0.021859	-0.003750
			CHANNELS 3 Zrotation Xrotation Yrotation
			JOINT L_ring_b
			{
				OFFSET	 0.034478	 0.000000	 0.000000
				CHANNELS 3 Zrotation Xrotation Yrotation
				JOINT L_ring_c
				{
					OFFSET	 0.021377	 0.000000	 0.000000
					CHANNELS 3 Zrotation Xrotation Yrotation
					End Site
					{
						OFFSET	 0.021377	 0.000000	 0.000000
					}
				}
			}
		}
		JOINT L_thumb_Proximal
		{
			OFFSET	 0.030306	 0.018528	 0.004584
			CHANNELS 3 Zrotation Xrotation Yrotation
			JOINT L_thumb_a
			{
				OFFSET	 0.038520	 0.000000	 0.000000
				CHANNELS 3 Zrotation Xrotation Yrotation
				JOINT L_thumb_b
				{
					OFFSET	 0.026310	 0.000000	 0.000000
					CHANNELS 3 Zrotation Xrotation Yrotation
					End Site
					{
						OFFSET	 0.026310	 0.000000	 0.000000
					}
				}
			}
		}
	}
}
MOTION
Frames:    10
Frame Time: 0.01666667
 0.670381	-0.130816	 0.821329	 60.741470	 65.905460	 23.763380	-10.439160	 0.928671	 5.274662	-1.509314	 0.349432	-24.960120	 1.294902	-0.437206	-37.304700	-4.093911	 0.859221	-23.697790	-13.533650	-5.132404	-73.292590	-2.003309	 1.909636	-87.255970	-0.588370	 0.205457	-38.499720	-35.115800	-14.096250	-67.209000	-5.738904	 4.231075	-72.778940	-1.188505	 0.481373	-44.097690	-23.915130	-6.678020	-77.707950	-0.393185	 0.340719	-81.819040	 3.327026	-1.122687	-37.283910	 53.327320	 53.411130	-52.377560	-4.203959	 0.507908	-13.771460	-1.356097	 0.333531	-27.634190
 0.670265	-0.131069	 0.821643	 60.268930	 66.137220	 24.222680	-10.817910	 0.920336	 5.227169	-1.689634	 0.400798	-24.972590	 1.087108	-0.374018	-37.960880	-4.324901	 0.944673	-24.635190	-13.664170	-5.024716	-73.271210	-2.039571	 1.941855	-87.187590	-0.660404	 0.229762	-38.369540	-35.298670	-13.972400	-67.156590	-5.696454	 4.196424	-72.735470	-1.159906	 0.469405	-44.063820	-24.070860	-6.530793	-77.775210	-0.308349	 0.266955	-81.764440	 3.320969	-1.117304	-37.181190	 53.157680	 53.547180	-52.056080	-4.384795	 0.534325	-13.889380	-1.457038	 0.360020	-27.756560
 0.670151	-0.131470	 0.821826	 59.940800	 66.184740	 24.570840	-11.062350	 0.912089	 5.180199	-1.850300	 0.456302	-25.131700	 0.980290	-0.342416	-38.504600	-4.528702	 1.007994	-25.084450	-13.709490	-4.977333	-73.364030	-2.067919	 1.969385	-87.203580	-0.634317	 0.220755	-38.377180	-35.386410	-13.897690	-67.232490	-5.747096	 4.252793	-72.981430	-1.164858	 0.468537	-43.821420	-24.179090	-6.411003	-77.962150	-0.335605	 0.290678	-81.791760	 3.363584	-1.127593	-37.057150	 52.834250	 53.726330	-51.797680	-4.536895	 0.555783	-13.960750	-1.675847	 0.414555	-27.785850
 0.669969	-0.131677	 0.821980	 59.578620	 66.229840	 24.958480	-11.250200	 0.919248	 5.221046	-2.019706	 0.507043	-25.176830	 0.864882	-0.303473	-38.669480	-5.168706	 1.155667	-25.190570	-13.613890	-5.068870	-73.262700	-1.994108	 1.903289	-87.329570	-0.637262	 0.221853	-38.386940	-35.402400	-13.882850	-67.274440	-5.765328	 4.272904	-73.066460	-1.174533	 0.471939	-43.780990	-24.115860	-6.469208	-78.002010	-0.334366	 0.289988	-81.868510	 3.382063	-1.133691	-37.054050	 52.376090	 53.933920	-51.553750	-4.625474	 0.567160	-13.973960	-1.949568	 0.477167	-27.500430
 0.669824	-0.131916	 0.822113	 59.228620	 66.314410	 25.317600	-11.395650	 0.925046	 5.253977	-2.389510	 0.612000	-24.870930	 0.587101	-0.205328	-38.551120	-5.737108	 1.288660	-25.301410	-13.539980	-5.141654	-73.141920	-1.918351	 1.831727	-87.352370	-0.651250	 0.226387	-38.335510	-35.366450	-13.912030	-67.259660	-5.695737	 4.221498	-73.068710	-1.107137	 0.444619	-43.758780	-24.028820	-6.550040	-78.032150	-0.247368	 0.214682	-81.908100	 3.444050	-1.153782	-37.033240	 51.955600	 54.099380	-51.423500	-4.690619	 0.587066	-14.260610	-2.168629	 0.539095	-27.917440
 0.669653	-0.132144	 0.822229	 58.858470	 66.442570	 25.667340	-11.427790	 0.917821	 5.212870	-2.419031	 0.622597	-25.032230	 0.932423	-0.325836	-38.520700	-5.381419	 1.201193	-25.149010	-13.449140	-5.229596	-73.037120	-1.839319	 1.757191	-87.383220	-0.660562	 0.230349	-38.449980	-35.255040	-14.003010	-67.201260	-5.609712	 4.174824	-73.294760	-1.095676	 0.441022	-43.850080	-23.902990	-6.673283	-78.019810	-0.098928	 0.086124	-82.084140	 3.513898	-1.182181	-37.179090	 51.256450	 54.370110	-51.212780	-4.823792	 0.605651	-14.304080	-2.331180	 0.572307	-27.579660
 0.669559	-0.132419	 0.822401	 58.543120	 66.580190	 25.981520	-11.391890	 0.910548	 5.171484	-2.605903	 0.673439	-24.787010	 0.954506	-0.327200	-37.845950	-5.220379	 1.136312	-24.542320	-13.337300	-5.343868	-72.739880	-1.729634	 1.650854	-87.329040	-0.535349	 0.187203	-38.546590	-35.104450	-14.134750	-67.001210	-5.586041	 4.170018	-73.463940	-0.965343	 0.389407	-43.935400	-23.780510	-6.799932	-77.894280	 0.020701	-0.018099	-82.306850	 3.664508	-1.234448	-37.222960	 50.320210	 54.710990	-50.998900	-4.975167	 0.637017	-14.584450	-2.499017	 0.608607	-27.366950
 0.669445	-0.132590	 0.822636	 58.283970	 66.728130	 26.215390	-11.265580	 0.895652	 5.086706	-2.751938	 0.708867	-24.420050	 1.287558	-0.428069	-36.784100	-4.865452	 1.025012	-23.777060	-13.132740	-5.537001	-72.424870	-1.559091	 1.481951	-87.092210	-0.419365	 0.147252	-38.694220	-34.766620	-14.400240	-66.810890	-5.361345	 4.009238	-73.560780	-0.716748	 0.288600	-43.861110	-23.485520	-7.092566	-77.703680	 0.223361	-0.195693	-82.448360	 3.848062	-1.293355	-37.144020	 49.648660	 54.923290	-50.973500	-4.979688	 0.651532	-14.899660	-2.713445	 0.665787	-27.566400
 0.669274	-0.132784	 0.822751	 57.789340	 66.962840	 26.672750	-11.098590	 0.869187	 4.935780	-2.863181	 0.714339	-23.439960	 2.118917	-0.634702	-33.360660	-3.973326	 0.749423	-21.332710	-12.917050	-5.743347	-72.087200	-1.392560	 1.326937	-87.233980	-0.131818	 0.046217	-38.622650	-34.474700	-14.634440	-66.629340	-5.231325	 3.916451	-73.624080	-0.405853	 0.163648	-43.919300	-23.262760	-7.317218	-77.561200	 0.339656	-0.298294	-82.580730	 4.093938	-1.374118	-37.095470	 48.801770	 55.213330	-50.796860	-5.070677	 0.670700	-15.059560	-2.995820	 0.727921	-27.305960
 0.669066	-0.133056	 0.822825	 57.386350	 67.077930	 27.048350	-11.011750	 0.840304	 4.771460	-3.080544	 0.747432	-22.142790	 2.516854	-0.696912	-30.959540	-3.395064	 0.591762	-19.752720	-12.812190	-5.841994	-71.768140	-1.296760	 1.237975	-87.343320	-0.049279	 0.017285	-38.629980	-34.324260	-14.745040	-66.553720	-5.040815	 3.767525	-73.533690	-0.193798	 0.078277	-43.988490	-23.156030	-7.419103	-77.449300	 0.448074	-0.393050	-82.514440	 4.147792	-1.394911	-37.162140	 48.100410	 55.482000	-50.535450	-5.078467	 0.680862	-15.262490	-3.245495	 0.783880	-27.149500
